<svg width="60" height="60" viewBox="0 0 60 60" fill="none" xmlns="http://www.w3.org/2000/svg">
<g clip-path="url(#clip0_604_1042)">
<path d="M30 0C13.5 0 0 13.5241 0 30.1808C0 45.241 10.98 57.741 25.32 60V38.9157H17.7V30.1808H25.32V23.5241C25.32 15.9638 29.79 11.8072 36.66 11.8072C39.93 11.8072 43.3499 12.3795 43.3499 12.3795V19.8193H39.5699C35.85 19.8193 34.68 22.1385 34.68 24.5181V30.1808H43.0199L41.6699 38.9157H34.68V60C41.7491 58.8789 48.1865 55.2575 52.8296 49.7892C57.4727 44.3211 60.0161 37.3663 59.9999 30.1808C59.9999 13.5241 46.4999 0 30 0Z" fill="#36743E"/>
</g>
<defs>
<clipPath id="clip0_604_1042">
<rect width="60" height="60" fill="white"/>
</clipPath>
</defs>
</svg>
