<svg width="60" height="60" viewBox="0 0 60 60" fill="none" xmlns="http://www.w3.org/2000/svg">
<g clip-path="url(#clip0_604_1046)">
<path d="M32.0307 0.0615234C47.254 0.0615234 59.7095 12.5169 59.7095 27.7402V32.0648C59.7095 47.2881 47.254 59.7435 32.0307 59.7435H27.7062C12.4829 59.7435 0.0274658 47.2881 0.0274658 32.0648V27.7402C0.0274658 12.5169 12.4829 0.0615234 27.7062 0.0615234H32.0307ZM30.4126 15.062L30.0275 15.0615C26.8208 15.0615 23.6141 15.1675 23.6141 15.1675C18.9304 15.1675 15.1335 18.9644 15.1335 23.6481C15.1335 23.6481 15.0361 26.4016 15.028 29.3571L15.0275 29.7435C15.0275 33.0526 15.1335 36.4749 15.1335 36.4749C15.1335 41.1586 18.9304 44.9555 23.6141 44.9555C23.6141 44.9555 26.6122 45.0615 29.7095 45.0615C33.0186 45.0615 36.5469 44.9555 36.5469 44.9555C41.2306 44.9555 44.9215 41.2647 44.9215 36.581C44.9215 36.581 45.0275 33.1972 45.0275 29.9556L45.0255 29.1948C45.0112 26.2864 44.9214 23.5421 44.9214 23.5421C44.9214 18.8584 41.2306 15.1675 36.5469 15.1675C36.5469 15.1675 33.4939 15.0698 30.4126 15.062ZM30.0275 17.7615C32.657 17.7615 36.0285 17.8484 36.0285 17.8484C39.8692 17.8484 42.2405 20.2197 42.2405 24.0604C42.2405 24.0604 42.3275 27.3743 42.3275 29.9745C42.3275 32.6326 42.2405 36.0625 42.2405 36.0625C42.2405 39.9031 39.8692 42.2744 36.0285 42.2744C36.0285 42.2744 33.0469 42.3475 30.4599 42.3597L29.7667 42.3614C27.227 42.3614 24.1324 42.2744 24.1324 42.2744C20.2918 42.2744 17.8144 39.797 17.8144 35.9565C17.8144 35.9565 17.7275 32.5142 17.7275 29.8007C17.7275 27.2609 17.8144 24.0604 17.8144 24.0604C17.8144 20.2197 20.2919 17.8484 24.1324 17.8484C24.1324 17.8484 27.3979 17.7615 30.0275 17.7615ZM30.0274 22.3776C25.7837 22.3776 22.3436 25.8178 22.3436 30.0614C22.3436 34.3051 25.7837 37.7452 30.0274 37.7452C34.2711 37.7452 37.7112 34.3051 37.7112 30.0614C37.7112 25.8178 34.2711 22.3776 30.0274 22.3776ZM30.0274 25.0614C32.7889 25.0614 35.0274 27.3 35.0274 30.0614C35.0274 32.8229 32.7889 35.0614 30.0274 35.0614C27.266 35.0614 25.0274 32.8229 25.0274 30.0614C25.0274 27.3 27.2659 25.0614 30.0274 25.0614ZM38.0789 20.2453C37.0535 20.2453 36.2223 21.0807 36.2223 22.1111C36.2223 23.1416 37.0535 23.9769 38.0789 23.9769C39.1043 23.9769 39.9355 23.1416 39.9355 22.1111C39.9355 21.0806 39.1043 20.2453 38.0789 20.2453Z" fill="#36743E"/>
</g>
<defs>
<clipPath id="clip0_604_1046">
<rect width="60" height="60" fill="white"/>
</clipPath>
</defs>
</svg>
